# xmcd
#
# Track frame offsets:
#	150
#	15213
#	36926
#	53364
#	79798
#	93870
#	103964
#	130445
#	157641
#	177689
#	205333
#
# Disc length: 3119 seconds
#
# Revision: 1
# Processed by: cddbd v1.5.2PL0 Copyright (c) Steve Scherf et al.
# Submitted via: audiograbber 1.83.01
#
DISCID=820c2d0b
DTITLE=Spikedrivers - Front Porch Swing [CD2]
DYEAR=2010
DGENRE=Blues
TTITLE0=Beyond A Silver Moon
TTITLE1=Guided By Spirits
TTITLE2=Candy Man
TTITLE3=Oklahoma Stardust Blues
TTITLE4=Clyde
TTITLE5=Diddly Goat Pot
TTITLE6=Bright Lights, Big City
TTITLE7=Little Red Hen
TTITLE8=Urban Love Boogie
TTITLE9=Love With A Feelin'
TTITLE10=No Expectations
EXTD=
EXTT0=
EXTT1=
EXTT2=
EXTT3=
EXTT4=
EXTT5=
EXTT6=
EXTT7=
EXTT8=
EXTT9=
EXTT10=
PLAYORDER=
